<svg height="512pt" viewBox="0 0 512 512" width="512pt" xmlns="http://www.w3.org/2000/svg" xmlns:xlink="http://www.w3.org/1999/xlink"><linearGradient id="a" gradientUnits="userSpaceOnUse" x1="0" x2="512" y1="256" y2="256"><stop offset="0" stop-color="#00f38d"/><stop offset="1" stop-color="#009eff"/></linearGradient><path d="m512 256c0 141.386719-114.613281 256-256 256s-256-114.613281-256-256 114.613281-256 256-256 256 114.613281 256 256zm0 0" fill="url(#a)"/><g fill="#fff"><path d="m155.429688 198.386719-20.671876 21.742187 64.359376 61.179688 96.6875-107.980469-22.347657-20.011719-76.070312 84.953125zm0 0"/><path d="m314.160156 349.375c19.417969 0 35.214844-15.796875 35.214844-35.214844v-22.710937h39.378906c4.371094 5.398437 11.050782 8.851562 18.539063 8.851562 13.171875 0 23.851562-10.679687 23.851562-23.851562s-10.679687-23.851563-23.851562-23.851563c-7.488281 0-14.167969 3.453125-18.539063 8.851563h-69.378906v52.710937c0 2.875-2.339844 5.214844-5.214844 5.214844h-198.089844c-2.875 0-5.214843-2.339844-5.214843-5.214844v-198.089844c0-2.875 2.339843-5.214843 5.214843-5.214843h198.089844c2.875 0 5.214844 2.339843 5.214844 5.214843v112.683594h103.597656v-65.1875c5.003906-4.371094 8.171875-10.792968 8.171875-17.960937 0-13.175781-10.679687-23.851563-23.851562-23.851563-13.175781 0-23.851563 10.675782-23.851563 23.851563 0 7.796875 3.742188 14.722656 9.53125 19.074219v34.074218h-43.601562v-82.683594c0-19.417968-15.796875-35.214843-35.210938-35.214843h-198.089844c-19.417968 0-35.214843 15.796875-35.214843 35.214843v198.089844c0 19.417969 15.796875 35.210938 35.214843 35.210938h88.816407v39.378906c-5.398438 4.375-8.855469 11.054688-8.855469 18.539062 0 13.175782 10.679688 23.855469 23.855469 23.855469 13.171875 0 23.851562-10.679687 23.851562-23.855469 0-7.488281-3.457031-14.167968-8.855469-18.539062v-39.378906h34.0625v72.917968h119.808594c4.371094 5.398438 11.050782 8.851563 18.539063 8.851563 13.171875 0 23.851562-10.675781 23.851562-23.851563 0-13.171874-10.679687-23.851562-23.851562-23.851562-7.488281 0-14.167969 3.453125-18.539063 8.851562h-89.808594v-42.917968h15.214844zm0 0"/></g></svg>